<svg width="16" height="16" viewBox="0 0 16 16" fill="none" xmlns="http://www.w3.org/2000/svg">
<g clip-path="url(#clip0_8_166)">
<path d="M1.40887 3.46704C0.892976 4.21583 0.500914 5.0566 0.263184 5.96027H3.90223L1.40887 3.46704Z" fill="#29337A"/>
<path d="M5.7595 0.32019C4.83776 0.588625 3.98412 1.01696 3.23242 1.57565L5.7595 4.10273V0.32019Z" fill="#29337A"/>
<path d="M3.42041 14.5578C4.12549 15.0512 4.91323 15.4331 5.75954 15.6796V12.219L3.42041 14.5578Z" fill="#29337A"/>
<path d="M0.35498 10.3621C0.619497 11.2189 1.02483 12.0138 1.54285 12.7209L3.90168 10.3621H0.35498Z" fill="#29337A"/>
<path d="M1.54091 3.28137C1.49619 3.34251 1.45211 3.40453 1.40891 3.46719L3.90227 5.96041H0.263221C0.204244 6.18487 0.156111 6.41365 0.116455 6.64557H4.90538L1.54091 3.28137Z" fill="white"/>
<path d="M3.23486 14.4258C3.29573 14.4712 3.35829 14.5143 3.42041 14.5578L5.75954 12.2189V15.6795C5.98426 15.7452 6.2125 15.8019 6.44469 15.8475V11.2161L3.23486 14.4258Z" fill="white"/>
<path d="M0.177246 9.677C0.2269 9.90916 0.285505 10.1378 0.354851 10.3622H3.90158L1.54276 12.721C1.7993 13.0715 2.08378 13.4004 2.39289 13.7046L6.42045 9.677H0.177246Z" fill="white"/>
<path d="M5.75948 0.320234V4.10277L3.23237 1.57583C2.88399 1.83491 2.55833 2.12253 2.25659 2.4339L6.4445 6.6218V0.152222C6.21244 0.198092 5.98421 0.254941 5.75948 0.320234Z" fill="white"/>
<path d="M5.75961 10.338L5.7356 10.3622H5.75961V10.338Z" fill="#D32030"/>
<path d="M6.42065 9.67695H6.44464V9.65283L6.42065 9.67695Z" fill="#D32030"/>
<path d="M9.49942 6.64539H9.47632V6.66863L9.49942 6.64539Z" fill="#D32030"/>
<path d="M5.78313 5.96039L5.75952 5.93665V5.96039H5.78313Z" fill="#D32030"/>
<path d="M6.44482 6.62183V6.64547H6.46847L6.44482 6.62183Z" fill="#D32030"/>
<path d="M10.1614 13.9086V15.7019C11.0187 15.4619 11.818 15.0836 12.533 14.5907L10.5899 12.6476C10.4346 13.1931 10.3778 13.4752 10.1614 13.9086Z" fill="#252F6C"/>
<path d="M10.6001 3.66394L12.7213 1.54271C11.9592 0.984627 11.0947 0.559328 10.1614 0.297852V2.14004C10.4109 2.63962 10.4318 3.01922 10.6001 3.66394Z" fill="#252F6C"/>
<path d="M14.4242 12.7676C14.9584 12.049 15.3748 11.2378 15.6452 10.3622H12.0188L14.4242 12.7676Z" fill="#252F6C"/>
<path d="M15.737 5.96037C15.4942 5.03762 15.0904 4.18108 14.5582 3.42053L12.0181 5.96037H15.737Z" fill="#252F6C"/>
<path d="M11.0669 9.81254L11.6166 10.3623L14.248 12.9937C14.3078 12.9189 14.3671 12.8444 14.4243 12.7677L12.0188 10.3623H15.6452C15.7144 10.1381 15.7731 9.90931 15.8226 9.67712H11.1183C11.1106 9.77427 11.0761 9.71604 11.0669 9.81254Z" fill="#E7E7E7"/>
<path d="M10.5169 4.06514L12.9019 1.6799C12.8421 1.63355 12.7823 1.58745 12.7212 1.54272L10.6 3.66395C10.622 3.74783 10.4964 3.97924 10.5169 4.06514Z" fill="#E7E7E7"/>
<path d="M10.1612 1.99265V0.297731C9.93677 0.234836 9.70826 0.181534 9.47607 0.138062V0.964814C9.731 1.24119 9.95951 1.58832 10.1612 1.99265Z" fill="#E7E7E7"/>
<path d="M11.0131 6.64543H15.8837C15.8442 6.41351 15.7959 6.18486 15.737 5.96027H12.0181L14.5582 3.42043C14.3084 3.0637 14.0309 2.72822 13.7278 2.41736L10.8667 5.27816C10.9437 5.79709 10.9782 6.09846 11.0131 6.64543Z" fill="#E7E7E7"/>
<path d="M10.4741 12.5318L12.533 14.5909C12.8754 14.355 13.1979 14.0925 13.4988 13.8076L10.7907 11.0994C10.7043 11.6002 10.6017 12.084 10.4741 12.5318Z" fill="#E7E7E7"/>
<path d="M9.47632 14.9401V15.8616C9.70848 15.8183 9.93688 15.7648 10.1615 15.7019V13.9086C9.95961 14.3131 9.73111 14.6641 9.47632 14.9401Z" fill="#E7E7E7"/>
<path d="M10.8667 5.27818L13.7275 2.41737C13.4699 2.15286 13.1938 1.90668 12.9017 1.67993L10.6538 3.92823C10.7537 4.34583 10.7991 4.82383 10.8667 5.27818Z" fill="#D71F28"/>
<path d="M7.60083 0.0098632C7.73412 0.00341159 7.867 0 7.99999 0C7.86622 0 7.73311 0.00341159 7.60083 0.0098632Z" fill="#D32030"/>
<path d="M7.99999 16C7.86698 16 7.73409 15.9963 7.60107 15.9899C7.73335 15.9966 7.86623 16 7.99999 16Z" fill="#D32030"/>
<path d="M8 16C8.50475 16 8.99764 15.9511 9.47637 15.8615V14.9401C9.05614 15.3956 8.56453 16 8 16Z" fill="#D32030"/>
<path d="M15.8836 6.64539H11.0762C11.1399 7.64873 11.1322 8.68048 11.0532 9.67697H15.8227C15.9381 9.13594 16 8.57536 16 8.00012C16 7.53804 15.9588 7.08609 15.8836 6.64539Z" fill="#D71F28"/>
<path d="M11.0669 9.8125C11.0224 10.2852 10.8676 10.6535 10.7905 11.0994L13.4986 13.8075C13.7665 13.5536 14.017 13.282 14.2479 12.9937L11.6166 10.3621L11.0669 9.8125Z" fill="#D71F28"/>
<path d="M9.47616 1.02429V0.138186C8.99756 0.0488769 8.50467 0 7.99976 0C8.56429 0 9.0559 0.568924 9.47616 1.02429Z" fill="#D32030"/>
<path d="M10.1614 14.2547C10.3778 13.8212 10.5633 13.3221 10.7187 12.7767L10.1614 12.2194V14.2547Z" fill="#29337A"/>
<path d="M10.788 3.47602C10.6195 2.8313 10.4109 2.24518 10.1614 1.74561V4.1024L10.788 3.47602Z" fill="#29337A"/>
<path d="M11.2221 9.96766C11.2311 9.87116 11.2394 9.77428 11.2472 9.677H10.9314L11.2221 9.96766Z" fill="white"/>
<path d="M10.1612 4.10242V1.74548C9.95937 1.34116 9.731 0.993787 9.47607 0.717651V5.10563L10.852 3.72968C10.8313 3.64378 10.8096 3.55964 10.7878 3.47577L10.1612 4.10242Z" fill="white"/>
<path d="M9.49927 6.64548H11.2702C11.2355 6.09854 11.1802 5.56042 11.1032 5.04163L9.49927 6.64548Z" fill="white"/>
<path d="M9.47632 15.2823C9.73124 15.006 9.95961 14.6588 10.1615 14.2545V12.2192L10.7188 12.7765C10.8466 12.3284 10.9538 11.8498 11.0405 11.349L9.47635 9.78491L9.47632 15.2823Z" fill="white"/>
<path d="M9.47627 15.2823V9.78487L11.0403 11.349C11.1172 10.903 11.1778 10.4404 11.2221 9.96764L10.9314 9.67698H11.2472C11.3262 8.68046 11.3339 7.64871 11.2702 6.6454H9.49927L11.1031 5.04155C11.0355 4.58706 10.9519 4.14748 10.852 3.72974L9.47631 5.10569V0.717717C9.056 0.262219 8.5644 0 7.99987 0C7.86685 0 7.73396 0.00341159 7.60071 0.0098632C7.20723 0.0295558 6.82135 0.0779598 6.44465 0.152238V6.62179L2.25665 2.43388C1.99932 2.69941 1.75997 2.98233 1.54092 3.28134L4.21996 5.96038L4.90535 6.64553H0.116467C0.0414457 7.0861 0 7.53805 0 8.00014C0 8.57551 0.0621517 9.13596 0.177335 9.67698H6.42067L2.39308 13.7046C2.65681 13.9637 2.93761 14.2049 3.23486 14.4257L6.44455 11.216V15.8475C6.82121 15.9218 7.20736 15.9702 7.60084 15.9899C7.73386 15.9964 7.86675 16 7.99976 16C8.5644 16 9.056 15.7378 9.47627 15.2823Z" fill="#E51D35"/>
</g>
<defs>
<clipPath id="clip0_8_166">
<rect width="16" height="16" fill="white"/>
</clipPath>
</defs>
</svg>
