<svg width="22" height="22" viewBox="0 0 22 22" fill="none" xmlns="http://www.w3.org/2000/svg">
<path d="M4.07981 12.7493L10.453 18.7362C10.6452 18.9167 10.7413 19.007 10.8507 19.0412C10.9479 19.0717 11.0521 19.0717 11.1494 19.0412C11.2588 19.007 11.3549 18.9167 11.547 18.7362L17.9202 12.7493C19.7134 11.0648 19.9312 8.2928 18.423 6.34898L18.1394 5.98348C16.3353 3.65811 12.7138 4.04809 11.4461 6.70426C11.2671 7.07946 10.733 7.07946 10.5539 6.70426C9.28619 4.04809 5.66477 3.65811 3.8606 5.98348L3.57703 6.34898C2.06889 8.2928 2.28664 11.0648 4.07981 12.7493Z" stroke="#A6A6A6"/>
</svg>
