<svg width="15" height="19" viewBox="0 0 15 19" fill="none" xmlns="http://www.w3.org/2000/svg">
<path d="M4 10L11 10" stroke="#A6A6A6" stroke-linecap="round"/>
<path d="M4 13L8 13" stroke="#A6A6A6" stroke-linecap="round"/>
<path d="M1 3.4C1 2.55992 1 2.13988 1.16349 1.81901C1.3073 1.53677 1.53677 1.3073 1.81901 1.16349C2.13988 1 2.55992 1 3.4 1H8.00589C8.37277 1 8.55622 1 8.72885 1.04145C8.8819 1.07819 9.02822 1.1388 9.16243 1.22104C9.3138 1.3138 9.44352 1.44352 9.70294 1.70294L13.2971 5.29706C13.5565 5.55648 13.6862 5.6862 13.779 5.83757C13.8612 5.97178 13.9218 6.1181 13.9586 6.27115C14 6.44378 14 6.62723 14 6.99411V15.6C14 16.4401 14 16.8601 13.8365 17.181C13.6927 17.4632 13.4632 17.6927 13.181 17.8365C12.8601 18 12.4401 18 11.6 18H3.4C2.55992 18 2.13988 18 1.81901 17.8365C1.53677 17.6927 1.3073 17.4632 1.16349 17.181C1 16.8601 1 16.4401 1 15.6V3.4Z" stroke="#A6A6A6"/>
<path d="M8 1V4.6C8 5.44008 8 5.86012 8.16349 6.18099C8.3073 6.46323 8.53677 6.6927 8.81901 6.83651C9.13988 7 9.55992 7 10.4 7H14" stroke="#A6A6A6"/>
</svg>
