<svg width="17" height="17" viewBox="0 0 17 17" fill="none" xmlns="http://www.w3.org/2000/svg">
<path d="M6 3.5C6 3.8283 6.06466 4.15339 6.1903 4.45671C6.31594 4.76002 6.50009 5.03562 6.73223 5.26777C6.96438 5.49991 7.23998 5.68406 7.54329 5.8097C7.84661 5.93534 8.1717 6 8.5 6C8.82831 6 9.1534 5.93534 9.45671 5.8097C9.76002 5.68406 10.0356 5.49991 10.2678 5.26777C10.4999 5.03562 10.6841 4.76002 10.8097 4.45671C10.9353 4.15339 11 3.8283 11 3.5C11 3.17169 10.9353 2.8466 10.8097 2.54329C10.6841 2.23998 10.4999 1.96438 10.2678 1.73223C10.0356 1.50009 9.76002 1.31594 9.45671 1.1903C9.15339 1.06466 8.8283 1 8.5 1C8.17169 1 7.8466 1.06466 7.54329 1.1903C7.23998 1.31594 6.96438 1.50009 6.73223 1.73223C6.50009 1.96438 6.31594 2.23998 6.1903 2.54329C6.06466 2.84661 6 3.1717 6 3.5L6 3.5Z" stroke="#A6A6A6"/>
<path d="M2.17357 10.1202C1.88814 10.285 1.63796 10.5044 1.43732 10.7659C1.23668 11.0274 1.0895 11.3258 1.0042 11.6442C0.918896 11.9625 0.897133 12.2946 0.940152 12.6214C0.983172 12.9481 1.09013 13.2632 1.25493 13.5486C1.41972 13.8341 1.63912 14.0843 1.9006 14.2849C2.16208 14.4855 2.46052 14.6327 2.77888 14.718C3.09724 14.8033 3.42928 14.8251 3.75605 14.7821C4.08282 14.739 4.39791 14.6321 4.68334 14.4673C4.96878 14.3025 5.21895 14.0831 5.4196 13.8216C5.62024 13.5601 5.76741 13.2617 5.85271 12.9433C5.93802 12.625 5.95978 12.2929 5.91676 11.9662C5.87374 11.6394 5.76678 11.3243 5.60198 11.0389C5.43719 10.7534 5.21779 10.5033 4.95631 10.3026C4.69483 10.102 4.39639 9.95481 4.07803 9.8695C3.75967 9.7842 3.42763 9.76244 3.10086 9.80546C2.77409 9.84848 2.459 9.95544 2.17357 10.1202L2.17357 10.1202Z" stroke="#A6A6A6"/>
<path d="M14.8265 10.1202C15.1119 10.285 15.3621 10.5044 15.5627 10.7659C15.7634 11.0274 15.9106 11.3258 15.9959 11.6442C16.0812 11.9625 16.1029 12.2946 16.0599 12.6214C16.0169 12.9481 15.9099 13.2632 15.7451 13.5486C15.5803 13.8341 15.3609 14.0843 15.0995 14.2849C14.838 14.4855 14.5395 14.6327 14.2212 14.718C13.9028 14.8033 13.5708 14.8251 13.244 14.7821C12.9172 14.739 12.6021 14.6321 12.3167 14.4673C12.0313 14.3025 11.7811 14.0831 11.5805 13.8216C11.3798 13.5601 11.2327 13.2617 11.1473 12.9433C11.062 12.625 11.0403 12.2929 11.0833 11.9662C11.1263 11.6394 11.2333 11.3243 11.3981 11.0389C11.5629 10.7534 11.7823 10.5033 12.0438 10.3026C12.3052 10.102 12.6037 9.95481 12.922 9.8695C13.2404 9.7842 13.5724 9.76244 13.8992 9.80546C14.226 9.84848 14.5411 9.95544 14.8265 10.1202L14.8265 10.1202Z" stroke="#A6A6A6"/>
<path fill-rule="evenodd" clip-rule="evenodd" d="M5.99747 3.7015C5.9926 3.63785 5.99015 3.57395 5.99015 3.50993C5.99015 3.18364 6.05378 2.86052 6.17742 2.55864C6.0326 2.60805 5.88919 2.66214 5.74744 2.72085C4.87478 3.08232 4.08186 3.61213 3.41395 4.28004C2.74604 4.94795 2.21623 5.74087 1.85476 6.61353C1.4933 7.4862 1.30725 8.42151 1.30725 9.36607C1.30725 9.83453 1.35301 10.3007 1.44324 10.7581C1.64286 10.5001 1.89088 10.2834 2.17346 10.1203C2.22891 10.0882 2.28548 10.0584 2.34303 10.0308C2.31924 9.81046 2.30725 9.58856 2.30725 9.36607C2.30725 8.55283 2.46743 7.74755 2.77864 6.99622C3.08986 6.24488 3.54601 5.5622 4.12106 4.98715C4.66208 4.44613 5.29837 4.01035 5.99747 3.7015ZM11.0024 3.70145C11.7015 4.0103 12.3379 4.4461 12.8789 4.98714C13.454 5.56219 13.9101 6.24487 14.2213 6.99621C14.5325 7.74755 14.6927 8.55283 14.6927 9.36607C14.6927 9.58858 14.6807 9.81049 14.6569 10.0309C14.7144 10.0585 14.771 10.0883 14.8264 10.1203C15.109 10.2834 15.3571 10.5001 15.5567 10.7582C15.6469 10.3008 15.6927 9.83457 15.6927 9.36607C15.6927 8.4215 15.5067 7.48619 15.1452 6.61353C14.7837 5.74086 14.2539 4.94794 13.586 4.28004C12.9181 3.61213 12.1252 3.08232 11.2525 2.72085C11.1107 2.66212 10.9673 2.60802 10.8224 2.55859C10.9461 2.86049 11.0097 3.18363 11.0097 3.50993C11.0097 3.57393 11.0073 3.63782 11.0024 3.70145ZM13.2345 14.7808C12.9111 14.737 12.5993 14.6305 12.3166 14.4673C12.2613 14.4354 12.2073 14.4014 12.1547 14.3654C11.7576 14.6557 11.3264 14.8983 10.8698 15.0874C10.1185 15.3986 9.31323 15.5588 8.49999 15.5588C7.68674 15.5588 6.88147 15.3986 6.13013 15.0874C5.67357 14.8983 5.24236 14.6557 4.84525 14.3654C4.79264 14.4013 4.7386 14.4354 4.68324 14.4673C4.40058 14.6305 4.08882 14.737 3.76545 14.7808C4.35395 15.2954 5.02323 15.7113 5.74745 16.0113C6.62011 16.3728 7.55542 16.5588 8.49999 16.5588C9.44455 16.5588 10.3799 16.3728 11.2525 16.0113C11.9767 15.7113 12.646 15.2954 13.2345 14.7808Z" fill="#A6A6A6"/>
</svg>
